REM DIRINDEX 1\2,1\3,1\4,1\5
REM DIRNAME folder01,folder02,folder03,folder04,folder05
TITLE ""
FILE "1800_048.mp3" MP3
  TRACK 01 AUDIO
    TITLE "2:cjc044_1101"
    INDEX 01 00:00:00
  TRACK 02 AUDIO
    TITLE "0:"
    INDEX 01 00:00:74
  TRACK 03 AUDIO
    TITLE "3:cjc044_1102"
    INDEX 01 00:01:56
  TRACK 04 AUDIO
    TITLE "0:"
    INDEX 01 00:03:15
  TRACK 05 AUDIO
    TITLE "4:cjc044_1103"
    INDEX 01 00:03:68
  TRACK 06 AUDIO
    TITLE "0:"
    INDEX 01 00:05:01
  TRACK 07 AUDIO
    TITLE "5:cjc044_1104"
    INDEX 01 00:05:52
  TRACK 08 AUDIO
    TITLE "0:"
    INDEX 01 00:08:64
  TRACK 09 AUDIO
    TITLE "2:cjc044_1105"
    INDEX 01 00:10:53
  TRACK 10 AUDIO
    TITLE "0:"
    INDEX 01 00:11:52
  TRACK 11 AUDIO
    TITLE "3:cjc044_1106"
    INDEX 01 00:12:38
  TRACK 12 AUDIO
    TITLE "0:"
    INDEX 01 00:13:35
  TRACK 13 AUDIO
    TITLE "4:cjc044_1107"
    INDEX 01 00:14:13
  TRACK 14 AUDIO
    TITLE "0:"
    INDEX 01 00:15:11
  TRACK 15 AUDIO
    TITLE "5:cjc044_1108"
    INDEX 01 00:15:60
  TRACK 16 AUDIO
    TITLE "0:"
    INDEX 01 00:19:32
  TRACK 17 AUDIO
    TITLE "2:cjc044_1109"
    INDEX 01 00:21:15
  TRACK 18 AUDIO
    TITLE "0:"
    INDEX 01 00:22:19
  TRACK 19 AUDIO
    TITLE "3:cjc044_1110"
    INDEX 01 00:23:06
  TRACK 20 AUDIO
    TITLE "0:"
    INDEX 01 00:23:61
  TRACK 21 AUDIO
    TITLE "4:cjc044_1111"
    INDEX 01 00:24:43
  TRACK 22 AUDIO
    TITLE "0:"
    INDEX 01 00:25:52
  TRACK 23 AUDIO
    TITLE "5:cjc044_1112"
    INDEX 01 00:26:32
  TRACK 24 AUDIO
    TITLE "0:"
    INDEX 01 00:29:07
  TRACK 25 AUDIO
    TITLE "2:cjc044_1113"
    INDEX 01 00:30:65
  TRACK 26 AUDIO
    TITLE "0:"
    INDEX 01 00:31:69
  TRACK 27 AUDIO
    TITLE "3:cjc044_1114"
    INDEX 01 00:32:54
  TRACK 28 AUDIO
    TITLE "0:"
    INDEX 01 00:34:42
  TRACK 29 AUDIO
    TITLE "4:cjc044_1115"
    INDEX 01 00:35:23
  TRACK 30 AUDIO
    TITLE "0:"
    INDEX 01 00:36:27
  TRACK 31 AUDIO
    TITLE "5:cjc044_1116"
    INDEX 01 00:37:05
  TRACK 32 AUDIO
    TITLE "0:"
    INDEX 01 00:40:34
  TRACK 33 AUDIO
    TITLE "2:cjc044_1117"
    INDEX 01 00:42:16
  TRACK 34 AUDIO
    TITLE "0:"
    INDEX 01 00:43:48
  TRACK 35 AUDIO
    TITLE "3:cjc044_1118"
    INDEX 01 00:44:30
  TRACK 36 AUDIO
    TITLE "0:"
    INDEX 01 00:45:43
  TRACK 37 AUDIO
    TITLE "4:cjc044_1119"
    INDEX 01 00:46:23
  TRACK 38 AUDIO
    TITLE "0:"
    INDEX 01 00:47:56
  TRACK 39 AUDIO
    TITLE "5:cjc044_1120"
    INDEX 01 00:48:36
  TRACK 40 AUDIO
    TITLE "0:"
    INDEX 01 00:50:52
  TRACK 41 AUDIO
    TITLE "2:cjc044_1121"
    INDEX 01 00:52:41
  TRACK 42 AUDIO
    TITLE "0:"
    INDEX 01 00:53:37
  TRACK 43 AUDIO
    TITLE "3:cjc044_1122"
    INDEX 01 00:54:21
  TRACK 44 AUDIO
    TITLE "0:"
    INDEX 01 00:55:20
  TRACK 45 AUDIO
    TITLE "4:cjc044_1123"
    INDEX 01 00:56:04
  TRACK 46 AUDIO
    TITLE "0:"
    INDEX 01 00:57:03
  TRACK 47 AUDIO
    TITLE "5:cjc044_1124"
    INDEX 01 00:57:52
  TRACK 48 AUDIO
    TITLE "0:"
    INDEX 01 01:00:60
  TRACK 49 AUDIO
    TITLE "2:cjc044_1125"
    INDEX 01 01:02:48
  TRACK 50 AUDIO
    TITLE "0:"
    INDEX 01 01:03:53
  TRACK 51 AUDIO
    TITLE "3:cjc044_1126"
    INDEX 01 01:04:37
  TRACK 52 AUDIO
    TITLE "0:"
    INDEX 01 01:05:38
  TRACK 53 AUDIO
    TITLE "4:cjc044_1127"
    INDEX 01 01:06:18
  TRACK 54 AUDIO
    TITLE "0:"
    INDEX 01 01:07:25
  TRACK 55 AUDIO
    TITLE "5:cjc044_1128"
    INDEX 01 01:08:01
  TRACK 56 AUDIO
    TITLE "0:"
    INDEX 01 01:11:09
  TRACK 57 AUDIO
    TITLE "2:cjc044_1129"
    INDEX 01 01:12:66
  TRACK 58 AUDIO
    TITLE "0:"
    INDEX 01 01:14:10
  TRACK 59 AUDIO
    TITLE "3:cjc044_1130"
    INDEX 01 01:14:65
  TRACK 60 AUDIO
    TITLE "0:"
    INDEX 01 01:15:70
  TRACK 61 AUDIO
    TITLE "4:cjc044_1131"
    INDEX 01 01:16:54
  TRACK 62 AUDIO
    TITLE "0:"
    INDEX 01 01:17:73
  TRACK 63 AUDIO
    TITLE "5:cjc044_1132"
    INDEX 01 01:18:49
  TRACK 64 AUDIO
    TITLE "0:"
    INDEX 01 01:21:47
